<svg xmlns="http://www.w3.org/2000/svg" viewBox="0 0 256 256" focusable="false" color="var(--token-b9e7ed2b-16b9-4bf5-8cbf-c77ecf79670f, rgb(255, 255, 255))" style="user-select: none; width: 100%; height: 100%; display: inline-block; fill: var(--token-b9e7ed2b-16b9-4bf5-8cbf-c77ecf79670f, rgb(255, 255, 255)); color: var(--token-b9e7ed2b-16b9-4bf5-8cbf-c77ecf79670f, rgb(255, 255, 255)); flex-shrink: 0;"><g color="var(--token-b9e7ed2b-16b9-4bf5-8cbf-c77ecf79670f, rgb(255, 255, 255))" weight="fill"><path d="M176,24H80A56.06,56.06,0,0,0,24,80v96a56.06,56.06,0,0,0,56,56h96a56.06,56.06,0,0,0,56-56V80A56.06,56.06,0,0,0,176,24ZM128,176a48,48,0,1,1,48-48A48.05,48.05,0,0,1,128,176Zm60-96a12,12,0,1,1,12-12A12,12,0,0,1,188,80Zm-28,48a32,32,0,1,1-32-32A32,32,0,0,1,160,128Z"></path></g></svg>